<svg width="11" height="16" viewBox="0 0 11 16" fill="none" xmlns="http://www.w3.org/2000/svg">
<path fill-rule="evenodd" clip-rule="evenodd" d="M0.022319 11.4103C0.0381404 11.825 0.0272296 12.2408 0.0157727 12.6555C0.00431579 13.068 -0.00659578 13.4816 0.0048611 13.8941C0.00575855 13.9277 0.00670213 13.9612 0.00764443 13.9947C0.0112848 14.124 0.0149059 14.2526 0.0157727 14.382C0.0157727 14.4229 0.0143744 14.465 0.0129581 14.5076C0.00740828 14.6746 0.00158056 14.8501 0.0785126 14.9969C0.166349 15.1646 0.3693 15.2444 0.551518 15.2163C0.614259 15.2482 0.681909 15.2702 0.756106 15.2691C0.846622 15.2675 0.937138 15.2657 1.02767 15.2639C1.28692 15.2587 1.54632 15.2534 1.80632 15.2543C2.00272 15.2556 2.19891 15.2616 2.39491 15.2675C2.52232 15.2714 2.64964 15.2753 2.77688 15.2779C3.36591 15.2902 3.95456 15.2916 4.54346 15.2929C4.66528 15.2932 4.78711 15.2935 4.90895 15.2939C5.25443 15.2945 5.59967 15.2975 5.94479 15.3005C6.49182 15.3053 7.03856 15.3101 7.5855 15.3054C7.65502 15.3047 7.72451 15.3039 7.79396 15.3031C8.16325 15.2987 8.53175 15.2944 8.9014 15.3087C8.95512 15.311 9.00878 15.3136 9.06241 15.3161C9.23698 15.3244 9.41121 15.3326 9.58609 15.3335C9.81141 15.334 10.0367 15.3208 10.2615 15.3065C10.3379 15.361 10.4257 15.4 10.5261 15.4C10.7896 15.4 10.9926 15.1822 10.9996 14.9204C11.0018 14.8374 10.9942 14.7532 10.9675 14.6768C10.9667 14.639 10.966 14.6012 10.9652 14.5635C10.9606 14.3303 10.956 14.0977 10.9489 13.8639C10.9377 13.4913 10.9339 13.1184 10.9301 12.7454C10.9296 12.7015 10.9292 12.6576 10.9287 12.6137C10.9261 12.326 10.9169 12.0388 10.9076 11.7514C10.9036 11.6246 10.8995 11.4977 10.896 11.3707C10.8882 11.0914 10.8885 10.8115 10.8888 10.5317C10.8889 10.4005 10.889 10.2693 10.8884 10.1382C10.8871 9.88874 10.8884 9.63914 10.8897 9.3898C10.8907 9.2119 10.8916 9.03413 10.8916 8.85665C10.8916 8.48962 10.9007 8.12293 10.9098 7.75627C10.9209 7.3092 10.9319 6.86217 10.9265 6.41465C10.9234 6.14028 10.9147 5.8666 10.906 5.59271C10.9013 5.44385 10.8966 5.29493 10.8927 5.1458C10.8911 5.07439 10.8889 5.00303 10.8867 4.93166C10.8824 4.78866 10.878 4.64557 10.878 4.50175C10.8785 4.37927 10.8802 4.25693 10.8818 4.13466C10.8834 4.0126 10.8851 3.8906 10.8856 3.7686C10.8856 3.70535 10.872 3.64595 10.848 3.5915C10.8463 3.476 10.8032 3.3616 10.7187 3.27635C10.5457 3.102 10.2588 3.1031 10.0853 3.27635C10.0608 3.30086 10.0363 3.32538 10.0118 3.3499C9.77891 3.58294 9.54609 3.81595 9.30076 4.0359L9.29057 4.04504C9.18984 4.1354 9.09036 4.22464 8.99906 4.3252C8.99633 4.3285 8.9936 4.33125 8.99197 4.33455C8.87085 4.20805 8.75465 4.0755 8.64553 3.93855C8.64041 3.93211 8.63528 3.92565 8.63014 3.91919C8.52688 3.78927 8.4199 3.65467 8.30401 3.53155C8.29964 3.3176 8.29473 3.10475 8.27782 2.89025C8.25982 2.6642 8.22545 2.43925 8.19053 2.2143C8.15943 2.01575 8.11033 1.82215 8.03723 1.6357C7.9603 1.4399 7.86592 1.2584 7.7639 1.07635C7.67552 0.9196 7.55658 0.78375 7.43547 0.65395C7.19051 0.39435 6.89099 0.19415 6.54238 0.11165C6.21776 0.0352 5.89697 0.0022 5.56636 0H5.51017C5.14682 0 4.7742 0.0324501 4.44577 0.19635C4.34155 0.247967 4.24449 0.310205 4.14708 0.372669C4.1272 0.385416 4.1073 0.398173 4.08733 0.41085C3.9193 0.5181 3.7529 0.6446 3.61978 0.79695C3.40101 1.0472 3.23952 1.35465 3.12659 1.6676C3.08694 1.77686 3.06899 1.89293 3.0512 2.00799C3.04695 2.03542 3.04272 2.06279 3.03821 2.09C3.01677 2.22571 2.99943 2.36234 2.98203 2.49947C2.98039 2.51239 2.97875 2.52532 2.9771 2.53825C2.95037 2.73185 2.928 2.92325 2.92091 3.1196C2.92026 3.14481 2.91978 3.17001 2.9193 3.19518C2.91858 3.23317 2.91786 3.27109 2.91655 3.3088C2.85162 3.33465 2.79107 3.3693 2.72833 3.42045C2.65942 3.47663 2.61052 3.55325 2.56209 3.62914C2.54034 3.66321 2.51869 3.69714 2.49537 3.729C2.40972 3.84725 2.35298 3.96275 2.29897 4.1008C2.27686 4.15687 2.25694 4.21316 2.23699 4.26952C2.22543 4.30218 2.21386 4.33487 2.20185 4.36755C2.17076 4.42915 2.13366 4.4869 2.09383 4.543C2.05574 4.50177 2.01824 4.45965 1.98111 4.41795C1.96772 4.40291 1.95438 4.38792 1.94107 4.37305C1.83578 4.2559 1.73703 4.1349 1.63828 4.0117C1.59108 3.95304 1.54448 3.89382 1.49787 3.83459C1.41252 3.72612 1.32712 3.6176 1.23784 3.5123C1.18542 3.4509 1.13163 3.39065 1.07789 3.33045C1.01416 3.25907 0.950487 3.18775 0.889223 3.11465C0.811753 3.0206 0.696093 2.97825 0.578796 2.97825C0.451679 2.97825 0.322926 3.02775 0.236726 3.11465C0.111792 3.2406 0.0834226 3.4155 0.129796 3.57335C0.127929 3.58295 0.125295 3.59236 0.12266 3.60177C0.117595 3.61986 0.112524 3.63796 0.112883 3.6575C0.11555 3.8655 0.122096 4.07361 0.128642 4.28173C0.136826 4.54193 0.145011 4.80215 0.145617 5.0622C0.145617 5.1647 0.146841 5.26758 0.148067 5.37064C0.151684 5.6746 0.155319 5.98007 0.127614 6.28155C0.108519 6.48065 0.105245 6.6792 0.101972 6.8783C0.100842 6.98416 0.0954783 7.09001 0.0901103 7.19595C0.085103 7.29476 0.0800924 7.39364 0.0785126 7.49265C0.0763631 7.63097 0.0755075 7.76924 0.0746519 7.90748C0.0729016 8.19029 0.0711519 8.47302 0.0583263 8.756C0.0381404 9.20315 0.026138 9.65085 0.0146811 10.0986C0.00213308 10.5358 0.00649758 10.9731 0.022319 11.4103ZM7.17469 1.85845C7.28435 2.1461 7.32908 2.44805 7.37054 2.7522C7.38855 2.90015 7.40273 3.04755 7.40546 3.19715C7.40663 3.24552 7.40501 3.29361 7.4034 3.34162C7.40275 3.36076 7.40211 3.37988 7.40164 3.399C7.39939 3.40127 7.39692 3.40307 7.39442 3.40489C7.39146 3.40705 7.38848 3.40922 7.38582 3.4122C7.35464 3.44766 7.32555 3.4847 7.29637 3.52183C7.26582 3.56073 7.23518 3.59973 7.20196 3.63715C7.04102 3.82195 6.88936 4.01445 6.74042 4.2086C6.73668 4.21336 6.73302 4.21811 6.72938 4.22284C6.72291 4.23124 6.7165 4.23956 6.70986 4.24765C6.67349 4.20609 6.63776 4.16398 6.6021 4.12196C6.55754 4.06945 6.51309 4.01707 6.46763 3.96605C6.45825 3.9555 6.44887 3.94496 6.43947 3.93441C6.34943 3.83327 6.25909 3.73179 6.17412 3.6267C6.16013 3.60747 6.14627 3.5881 6.13239 3.56871C6.08078 3.49657 6.02899 3.42419 5.97008 3.3583C5.8566 3.2307 5.70984 3.1603 5.53963 3.1515C5.37923 3.1427 5.20574 3.223 5.10481 3.3495L5.10002 3.35544C5.04704 3.42112 4.99387 3.48702 4.95151 3.5607C4.94057 3.5794 4.93035 3.59873 4.9201 3.61813C4.90683 3.64325 4.89348 3.6685 4.8784 3.6927C4.87297 3.70142 4.86754 3.71014 4.86211 3.71886C4.81413 3.79601 4.76608 3.87323 4.71364 3.94735C4.66727 4.0062 4.62144 4.0645 4.57616 4.12335C4.53107 4.17871 4.48136 4.23003 4.43159 4.28141C4.40126 4.31273 4.3709 4.34407 4.34156 4.37635C4.29955 4.323 4.25646 4.2702 4.21336 4.2185C4.19886 4.20118 4.18437 4.18385 4.16987 4.1665C4.043 4.01474 3.91559 3.86234 3.7829 3.71525C3.78826 3.61881 3.79134 3.52211 3.79441 3.42537C3.80011 3.24624 3.80581 3.067 3.826 2.88915C3.84783 2.7368 3.87292 2.5828 3.90129 2.43155C3.90791 2.39821 3.9142 2.3646 3.92051 2.33091C3.94491 2.20063 3.96958 2.0689 4.01422 1.9448C4.07969 1.7985 4.15825 1.65385 4.24882 1.52295C4.31047 1.4509 4.37648 1.38325 4.44795 1.32165C4.49987 1.28528 4.55367 1.25185 4.60754 1.21838C4.64084 1.19769 4.67417 1.17698 4.70709 1.15555C4.77911 1.10935 4.85276 1.067 4.92914 1.0296C4.98751 1.00925 5.04589 0.99495 5.10699 0.9834C5.27012 0.9669 5.43379 0.9625 5.59909 0.95975C5.76931 0.95645 5.94171 0.95755 6.11192 0.9757C6.26305 0.9999 6.4098 1.03345 6.55383 1.08735C6.57784 1.0989 6.60075 1.1121 6.62312 1.12695C6.74587 1.23035 6.85717 1.3431 6.95864 1.4674C7.04375 1.5895 7.11304 1.72315 7.17469 1.85845ZM2.68431 14.3864C2.46027 14.375 2.23641 14.3636 2.01254 14.3561C1.65302 14.3435 1.2924 14.3363 0.935596 14.3314C0.932323 14.1999 0.926322 14.0685 0.919775 13.9376C0.902446 13.6223 0.903126 13.306 0.903805 12.9902C0.904002 12.8984 0.9042 12.8066 0.903954 12.7149C0.901772 12.3024 0.896861 11.8899 0.890314 11.4763C0.889221 11.4132 0.888061 11.3501 0.886901 11.287C0.879955 10.9091 0.873014 10.5315 0.880494 10.153C0.889223 9.702 0.901771 9.25045 0.919775 8.79945C0.928231 8.59265 0.930413 8.38585 0.932595 8.17905C0.934778 7.97225 0.93696 7.76545 0.945416 7.55865C0.947701 7.50335 0.949947 7.44804 0.952193 7.39271C0.966569 7.03859 0.980966 6.68393 1.00597 6.3305C1.01961 6.1303 1.0207 5.93065 1.01961 5.73045C1.01925 5.66062 1.01937 5.59061 1.01949 5.52052C1.01973 5.38027 1.01998 5.23969 1.01634 5.0996C1.01372 4.99267 1.0139 4.88539 1.01407 4.77831C1.01411 4.75156 1.01416 4.72482 1.01416 4.6981C1.1811 4.90985 1.35295 5.11775 1.53299 5.32015C1.65411 5.45765 1.79868 5.57975 1.9749 5.6364C2.09001 5.67435 2.19858 5.66885 2.31424 5.643C2.40896 5.62074 2.48117 5.56331 2.55429 5.50516C2.56245 5.49866 2.57062 5.49216 2.57884 5.4857C2.59676 5.47102 2.6134 5.45429 2.62998 5.43761C2.63764 5.42991 2.64528 5.42222 2.65304 5.41475C2.73596 5.33445 2.8058 5.24645 2.87508 5.1524C2.88466 5.13928 2.89433 5.12623 2.90401 5.11317C2.94505 5.05779 2.9861 5.00239 3.01966 4.9423C3.09476 4.81004 3.13892 4.66723 3.18329 4.5237C3.18856 4.50667 3.19383 4.48963 3.19915 4.4726C3.23243 4.51 3.26516 4.5474 3.29681 4.58645C3.42501 4.74155 3.55158 4.89775 3.67543 5.05615C3.69819 5.08855 3.72018 5.12139 3.74211 5.15413C3.8337 5.29089 3.92421 5.42604 4.06551 5.52145C4.11461 5.55445 4.17189 5.5792 4.22918 5.59295C4.27828 5.6089 4.32683 5.6144 4.37703 5.6089C4.46759 5.6089 4.55161 5.58635 4.62908 5.54015C4.73479 5.49471 4.80725 5.39446 4.87242 5.30431L4.87567 5.2998C4.89749 5.27006 4.91655 5.23874 4.93566 5.20733C4.95047 5.18298 4.96531 5.15858 4.98151 5.1348C5.04862 5.05175 5.1179 4.97035 5.18828 4.8895C5.25248 4.81699 5.30763 4.73867 5.36286 4.66023C5.38506 4.62871 5.40727 4.59716 5.43009 4.56597C5.43242 4.5629 5.43474 4.55982 5.43706 4.55675C5.43698 4.55683 5.4369 4.55692 5.43682 4.557C5.44381 4.54773 5.4508 4.53839 5.45779 4.5287C5.45452 4.53255 5.45124 4.53695 5.44797 4.54135C5.49052 4.4836 5.5309 4.42585 5.57018 4.36645C5.63993 4.45421 5.71496 4.53751 5.79002 4.62084C5.86173 4.70044 5.93346 4.78008 6.00063 4.86365C6.00943 4.87548 6.01826 4.88742 6.02714 4.89942C6.11072 5.01239 6.19848 5.131 6.30451 5.2195C6.3076 5.2221 6.31069 5.22469 6.31377 5.22727C6.4074 5.30583 6.49571 5.37993 6.6193 5.40815C6.66949 5.4252 6.72023 5.4307 6.77151 5.423C6.86099 5.423 6.94391 5.3999 7.02138 5.35425C7.13595 5.30255 7.21779 5.1942 7.29035 5.09465C7.34881 5.01327 7.40477 4.9299 7.46075 4.84649C7.51865 4.76022 7.57658 4.67392 7.63733 4.58975C7.66203 4.55799 7.6869 4.52616 7.7118 4.49427C7.75288 4.44167 7.79406 4.38894 7.83482 4.3362C7.88781 4.39999 7.93878 4.4659 7.98973 4.53178C8.0631 4.62665 8.13642 4.72146 8.21563 4.80975C8.25586 4.85408 8.29525 4.90003 8.33476 4.9461C8.41044 5.03437 8.48654 5.12312 8.5697 5.2019C8.6499 5.2767 8.75574 5.3724 8.86758 5.38945L8.87247 5.39019C8.97457 5.40567 9.02854 5.41385 9.13327 5.39165C9.1791 5.3834 9.22165 5.36635 9.26093 5.3405C9.27839 5.3328 9.2953 5.32455 9.31112 5.31355C9.43333 5.23325 9.52498 5.1381 9.61828 5.02865C9.71102 4.9203 9.80759 4.81745 9.90852 4.7168C9.94398 4.68105 9.97889 4.6453 10.0133 4.60845C10.0141 4.65021 10.0148 4.69184 10.0154 4.7334C10.0161 4.77558 10.0168 4.81769 10.0176 4.8598C10.0197 4.98765 10.0227 5.11545 10.0256 5.24324C10.0325 5.54367 10.0395 5.844 10.0356 6.1446C10.0335 6.3024 10.0333 6.46044 10.0331 6.61848C10.0327 6.86586 10.0324 7.11322 10.0247 7.35955C10.0116 7.7704 10.0138 8.1796 10.0193 8.5899C10.0222 8.87481 10.0222 9.15997 10.0222 9.44505C10.0222 9.58757 10.0222 9.73007 10.0225 9.8725C10.023 10.0475 10.0241 10.2227 10.0251 10.3977C10.0266 10.6308 10.028 10.8638 10.028 11.0963C10.0283 11.3402 10.0367 11.5837 10.045 11.8274C10.0508 11.9957 10.0565 12.1641 10.0596 12.3327C10.0625 12.4886 10.0637 12.6447 10.0648 12.8008C10.0668 13.0633 10.0688 13.3261 10.0787 13.5889C10.0891 13.8727 10.0864 14.1565 10.0836 14.4403C9.77322 14.4645 9.46224 14.487 9.15182 14.4727C9.07507 14.4692 8.99826 14.4653 8.92142 14.4614C8.64595 14.4474 8.36996 14.4334 8.09396 14.4386C7.64477 14.4455 7.19577 14.4471 6.74649 14.4487C6.44712 14.4498 6.14763 14.4508 5.84787 14.4535C5.58889 14.4561 5.33029 14.4503 5.07162 14.4445C4.89709 14.4405 4.72253 14.4366 4.54779 14.4353C4.4882 14.4347 4.42864 14.4341 4.36909 14.4336C3.99517 14.43 3.62184 14.4265 3.2477 14.4128C3.05971 14.4055 2.87195 14.3959 2.68431 14.3864Z" fill="#F4F6F9"/>
</svg>
