<svg width="13" height="4" viewBox="0 0 13 4" fill="none" xmlns="http://www.w3.org/2000/svg">
<path d="M2.10502 1.89366C1.86126 1.90649 1.73511 2.26663 1.73511 2.46909C1.73511 2.76376 1.98995 2.89773 2.26356 2.89773C2.63209 2.89773 2.98608 2.45121 2.85954 2.07862C2.72496 1.68237 2.33936 1.78797 2.02576 1.78797" stroke="#F4F6F9" stroke-width="2" stroke-linecap="round"/>
<path d="M6.30623 1.94646C6.18159 2.07111 5.90436 2.35886 6.04641 2.55418C6.16927 2.72312 6.37154 2.71272 6.55725 2.71272C6.69722 2.71272 6.7669 2.70161 6.80826 2.54831C6.86612 2.33391 6.88505 1.94799 6.72312 1.76737C6.62035 1.65274 6.47189 1.61761 6.32091 1.67196C6.10757 1.74876 6.06843 1.99448 6.06843 2.18427C6.06843 2.60986 6.42675 2.72539 6.78184 2.60703" stroke="#F4F6F9" stroke-width="2" stroke-linecap="round"/>
<path d="M10.5338 1.99935C10.415 2.16277 10.5563 2.49277 10.6924 2.60413C10.7886 2.68286 10.9392 2.70513 11.0608 2.68487C11.1461 2.67066 11.1151 2.48868 11.1151 2.43679C11.1151 2.24424 11.0804 2.10314 10.9551 1.94944C10.8855 1.86396 10.7811 1.69463 10.666 1.66172C10.4448 1.59854 10.2541 1.71918 10.1023 1.86577C9.87596 2.08427 10.0417 2.43782 10.2197 2.62028C10.4175 2.82306 10.9038 3.06736 10.9038 2.60707" stroke="#F4F6F9" stroke-width="2" stroke-linecap="round"/>
</svg>
